<svg width="224" height="426" viewBox="0 0 224 426" fill="none" xmlns="http://www.w3.org/2000/svg">
<g clip-path="url(#clip0_32_1525)">
<path d="M185.125 2.64893H150.375C149.995 2.64893 149.688 2.95673 149.688 3.33643V11.3989C149.688 11.7786 149.995 12.0864 150.375 12.0864H185.125C185.505 12.0864 185.812 11.7786 185.812 11.3989V3.33643C185.812 2.95673 185.505 2.64893 185.125 2.64893Z" fill="url(#paint0_linear_32_1525)"/>
<path d="M9.59375 63.6216L9.59375 46.4341C9.59375 46.0544 9.28595 45.7466 8.90625 45.7466H0.843751C0.464055 45.7466 0.156251 46.0544 0.156251 46.4341L0.156251 63.6216C0.156251 64.0013 0.464055 64.3091 0.843751 64.3091H8.90625C9.28595 64.3091 9.59375 64.0013 9.59375 63.6216Z" fill="url(#paint1_linear_32_1525)"/>
<path d="M9.59375 79.3716L9.59375 100.404C9.59375 100.785 9.28712 106.448 8.90625 106.448H2.43474C0.592968 106.448 0.156251 102.884 0.156251 100.404L0.156251 79.3716C0.156251 78.9907 0.462876 78.6841 0.843751 78.6841H8.90625C9.28713 78.6841 9.59375 78.9907 9.59375 79.3716Z" fill="url(#paint2_linear_32_1525)"/>
<path d="M9.59375 151.369V130.337C9.59375 129.956 9.28712 124.292 8.90625 124.292H2.43474C0.592967 124.292 0.15625 127.857 0.15625 130.337V151.369C0.15625 151.75 0.462875 152.057 0.84375 152.057H8.90625C9.28712 152.057 9.59375 151.75 9.59375 151.369Z" fill="#060E11"/>
<path d="M39.8418 3.95508C18.688 3.95508 1.6582 20.9849 1.6582 42.1387V387.516C1.6582 408.669 18.688 425.699 39.8418 425.699H69.7832C71.3446 425.699 72.7355 424.516 76.5898 424.516H148.037C151.891 424.516 153.282 425.699 154.844 425.699H184.787C205.941 425.699 222.971 408.669 222.971 387.516V42.1387C222.971 20.9849 205.941 3.95508 184.787 3.95508H54.3594C52.798 3.95508 51.407 4.83789 47.5527 4.83789C43.6984 4.83789 42.3075 3.95508 40.7461 3.95508H39.8418Z" fill="#182326"/>
<mask id="mask0_32_1525" style="mask-type:luminance" maskUnits="userSpaceOnUse" x="1" y="3" width="222" height="423">
<path d="M39.8418 3.95508C18.688 3.95508 1.6582 20.9849 1.6582 42.1387V387.516C1.6582 408.669 18.688 425.699 39.8418 425.699H69.7832C71.3446 425.699 72.7355 424.516 76.5898 424.516H148.037C151.891 424.516 153.282 425.699 154.844 425.699H184.787C205.941 425.699 222.971 408.669 222.971 387.516V42.1387C222.971 20.9849 205.941 3.95508 184.787 3.95508H54.3594C52.7979 3.95508 51.407 4.83789 47.5527 4.83789C43.6984 4.83789 42.3075 3.95508 40.7461 3.95508H39.8418ZM38.5449 5.5625H184.566C204.643 5.5625 220.807 21.7262 220.807 41.8027V388.031C220.807 408.108 204.643 424.269 184.566 424.269H38.5449C18.4684 424.269 2.30664 408.108 2.30664 388.031V41.8027C2.30664 21.7262 18.4684 5.5625 38.5449 5.5625Z" fill="white"/>
</mask>
<g mask="url(#mask0_32_1525)">
<g filter="url(#filter0_f_32_1525)">
<path d="M39.8418 3.95508C18.688 3.95508 1.6582 20.9849 1.6582 42.1387V387.516C1.6582 408.669 18.688 425.699 39.8418 425.699H69.7832C71.3446 425.699 72.7355 424.516 76.5898 424.516H148.037C151.891 424.516 153.282 425.699 154.844 425.699H184.787C205.941 425.699 222.971 408.669 222.971 387.516V42.1387C222.971 20.9849 205.941 3.95508 184.787 3.95508H54.3594C52.7979 3.95508 51.407 4.83789 47.5527 4.83789C43.6984 4.83789 42.3075 3.95508 40.7461 3.95508H39.8418Z" stroke="url(#paint3_linear_32_1525)" stroke-width="1.51181" stroke-linejoin="round"/>
</g>
</g>
<mask id="mask1_32_1525" style="mask-type:luminance" maskUnits="userSpaceOnUse" x="1" y="3" width="222" height="423">
<path d="M39.8418 3.95508C18.688 3.95508 1.6582 20.9849 1.6582 42.1387V387.516C1.6582 408.669 18.688 425.699 39.8418 425.699H69.7832C71.3446 425.699 72.7355 424.516 76.5898 424.516H148.037C151.891 424.516 153.282 425.699 154.844 425.699H184.787C205.941 425.699 222.971 408.669 222.971 387.516V42.1387C222.971 20.9849 205.941 3.95508 184.787 3.95508H54.3594C52.7979 3.95508 51.407 4.83789 47.5527 4.83789C43.6984 4.83789 42.3075 3.95508 40.7461 3.95508H39.8418Z" fill="white"/>
</mask>
<g mask="url(#mask1_32_1525)">
<g opacity="0.99" filter="url(#filter1_f_32_1525)">
<path fill-rule="evenodd" clip-rule="evenodd" d="M17.689 25.5464C17.689 25.5464 6.18896 28.5464 6.18896 47.5464V281.748C6.18896 320.463 7.00363 345.388 7.53396 363.596C8.06429 381.804 8.06429 387.461 11.2463 390.289C14.4283 393.118 17.689 25.5464 17.689 25.5464Z" fill="url(#paint4_linear_32_1525)"/>
<path fill-rule="evenodd" clip-rule="evenodd" d="M206.939 23.0894C206.939 23.0894 218.439 26.0894 218.439 45.0894V279.291C218.439 318.006 217.624 342.931 217.094 361.139C216.564 379.347 216.564 385.004 213.382 387.832C210.2 390.661 206.939 23.0894 206.939 23.0894Z" fill="url(#paint5_linear_32_1525)"/>
</g>
</g>
<path fill-rule="evenodd" clip-rule="evenodd" d="M206.939 23.0894C206.939 23.0894 218.439 26.0894 218.439 45.0894V279.291C218.439 318.006 217.624 342.931 217.094 361.139C216.564 379.347 216.564 385.004 213.382 387.832C210.2 390.661 206.939 23.0894 206.939 23.0894Z" fill="url(#paint6_linear_32_1525)"/>
<path fill-rule="evenodd" clip-rule="evenodd" d="M17.689 25.5464C17.689 25.5464 6.18896 28.5464 6.18896 47.5464V281.748C6.18896 320.463 7.00363 345.388 7.53395 363.596C8.06429 381.804 8.06429 387.461 11.2463 390.289C14.4283 393.118 17.689 25.5464 17.689 25.5464Z" fill="url(#paint7_linear_32_1525)"/>
<path d="M185.148 11.6294H39.4805C23.2571 11.6294 10.1055 24.781 10.1055 41.0044V388.65C10.1055 404.873 23.2571 418.025 39.4805 418.025H185.148C201.371 418.025 214.523 404.873 214.523 388.65V41.0044C214.523 24.781 201.371 11.6294 185.148 11.6294Z" fill="url(#paint8_linear_32_1525)"/>
<path fill-rule="evenodd" clip-rule="evenodd" d="M38.3361 419.828C21.6601 419.828 12.2974 411.873 12.2974 411.873C15.8644 415.232 23.2851 423.465 43.9679 423.465H180.66C201.343 423.465 208.764 415.232 212.331 411.873C212.331 411.873 202.966 419.828 186.29 419.828H38.3361Z" fill="url(#paint9_linear_32_1525)"/>
<path fill-rule="evenodd" clip-rule="evenodd" d="M45.0259 6.46484C24.6509 6.46484 16.4009 15.7148 16.4009 15.7148C16.4009 15.7148 26.5884 10.8379 38.9009 10.8379H185.727C198.04 10.8379 208.227 15.7148 208.227 15.7148C208.227 15.7148 199.977 6.46484 179.602 6.46484H76.977H45.0259Z" fill="url(#paint10_radial_32_1525)"/>
<path d="M44.9165 14.7676C33.8914 14.7676 26.4779 17.0265 21.061 22.4434C15.6442 27.8602 13.3853 35.2737 13.3853 46.2988V383.355C13.3853 394.38 15.6442 401.794 21.061 407.211C26.4779 412.628 33.8914 414.887 44.9165 414.887H179.711C190.737 414.887 198.15 412.628 203.567 407.211C208.984 401.794 211.243 394.38 211.243 383.355V46.2988C211.243 35.2737 208.984 27.8602 203.567 22.4434C198.15 17.0265 190.737 14.7676 179.711 14.7676H57.5786H44.9165Z" fill="url(#paint11_radial_32_1525)"/>
<path d="M112.314 405.157C123.298 405.157 132.202 396.253 132.202 385.269C132.202 374.286 123.298 365.382 112.314 365.382C101.331 365.382 92.4268 374.286 92.4268 385.269C92.4268 396.253 101.331 405.157 112.314 405.157Z" fill="#141315"/>
<path d="M112.314 404.782C123.091 404.782 131.827 396.046 131.827 385.269C131.827 374.493 123.091 365.757 112.314 365.757C101.538 365.757 92.8018 374.493 92.8018 385.269C92.8018 396.046 101.538 404.782 112.314 404.782Z" fill="black"/>
<path d="M131.247 391.305C125.163 393.462 118.759 394.574 112.305 394.596C105.857 394.573 99.4591 393.461 93.3813 391.307C94.661 395.323 97.1834 398.829 100.585 401.318C103.986 403.807 108.09 405.151 112.305 405.157C116.523 405.155 120.632 403.812 124.037 401.322C127.441 398.832 129.966 395.324 131.247 391.305Z" fill="url(#paint12_linear_32_1525)"/>
<path d="M115.765 378.774H108.863C107.271 378.774 105.981 380.064 105.981 381.655V388.397C105.981 389.988 107.271 391.278 108.863 391.278H115.765C117.356 391.278 118.647 389.988 118.647 388.397V381.655C118.647 380.064 117.356 378.774 115.765 378.774Z" stroke="#A8ACAD" stroke-width="1.13386" stroke-linejoin="round"/>
<path d="M128.54 39.9609H96.0886C93.7698 39.9609 91.8901 41.8406 91.8901 44.1594C91.8901 46.4781 93.7698 48.3578 96.0886 48.3578H128.54C130.858 48.3578 132.738 46.4781 132.738 44.1594C132.738 41.8406 130.858 39.9609 128.54 39.9609Z" fill="#1C2024"/>
<mask id="mask2_32_1525" style="mask-type:luminance" maskUnits="userSpaceOnUse" x="91" y="39" width="42" height="10">
<path d="M128.54 39.9609H96.0886C93.7698 39.9609 91.8901 41.8406 91.8901 44.1594C91.8901 46.4781 93.7698 48.3578 96.0886 48.3578H128.54C130.858 48.3578 132.738 46.4781 132.738 44.1594C132.738 41.8406 130.858 39.9609 128.54 39.9609Z" fill="white"/>
</mask>
<g mask="url(#mask2_32_1525)">
<g filter="url(#filter2_f_32_1525)">
<path fill-rule="evenodd" clip-rule="evenodd" d="M97.9819 44.5703C94.1939 44.5703 90.7222 48.9258 90.7222 48.9258C91.468 51.7093 98.8648 52.709 105.875 53.0293C105.984 53.0343 106.092 53.0383 106.201 53.043C106.368 53.0506 106.527 53.0596 107.068 53.0781C108.961 53.1451 110.682 53.1578 112.314 53.1543C113.946 53.1578 115.667 53.1451 117.56 53.0781C117.848 53.0679 118.137 53.0554 118.427 53.043C118.492 53.0401 118.753 53.0293 118.753 53.0293C125.763 52.709 133.16 51.7093 133.906 48.9258C133.906 48.9258 130.434 44.5703 126.646 44.5703H105.875H97.9819Z" fill="#8D8F90"/>
</g>
</g>
<path d="M128.464 41.8774H96.164C94.9036 41.8774 93.8818 42.8992 93.8818 44.1596C93.8818 45.4201 94.9036 46.4418 96.164 46.4418H128.464C129.724 46.4418 130.746 45.4201 130.746 44.1596C130.746 42.8992 129.724 41.8774 128.464 41.8774Z" fill="#26292D"/>
<path d="M96.1636 41.8774C94.8992 41.8774 93.8823 42.8963 93.8823 44.1606C93.8823 44.296 93.9008 44.4265 93.9233 44.5552C94.11 43.4811 95.0345 42.6665 96.1636 42.6665H128.464C129.593 42.6665 130.52 43.4811 130.707 44.5552C130.729 44.4265 130.746 44.2959 130.746 44.1606C130.746 42.8963 129.729 41.8774 128.464 41.8774H96.1636Z" fill="#0A0E12"/>
<path d="M204.987 75.8608H19.5815V353.793H204.987V75.8608Z" fill="black" stroke="url(#paint13_linear_32_1525)" stroke-opacity="0.75" stroke-width="4" stroke-linejoin="round"/>
<path d="M204.987 75.8608H19.5815V353.793H204.987V75.8608Z" fill="black"/>
</g>
<defs>
<filter id="filter0_f_32_1525" x="-2.31294" y="-0.0160642" width="229.255" height="429.686" filterUnits="userSpaceOnUse" color-interpolation-filters="sRGB">
<feFlood flood-opacity="0" result="BackgroundImageFix"/>
<feBlend mode="normal" in="SourceGraphic" in2="BackgroundImageFix" result="shape"/>
<feGaussianBlur stdDeviation="1.60764" result="effect1_foregroundBlur_32_1525"/>
</filter>
<filter id="filter1_f_32_1525" x="0.394302" y="17.2947" width="223.839" height="378.806" filterUnits="userSpaceOnUse" color-interpolation-filters="sRGB">
<feFlood flood-opacity="0" result="BackgroundImageFix"/>
<feBlend mode="normal" in="SourceGraphic" in2="BackgroundImageFix" result="shape"/>
<feGaussianBlur stdDeviation="2.89733" result="effect1_foregroundBlur_32_1525"/>
</filter>
<filter id="filter2_f_32_1525" x="88.9181" y="42.7662" width="46.7917" height="12.1926" filterUnits="userSpaceOnUse" color-interpolation-filters="sRGB">
<feFlood flood-opacity="0" result="BackgroundImageFix"/>
<feBlend mode="normal" in="SourceGraphic" in2="BackgroundImageFix" result="shape"/>
<feGaussianBlur stdDeviation="0.902037" result="effect1_foregroundBlur_32_1525"/>
</filter>
<linearGradient id="paint0_linear_32_1525" x1="149.688" y1="7.36767" x2="185.812" y2="7.36767" gradientUnits="userSpaceOnUse">
<stop stop-color="#060E11"/>
<stop offset="0.33" stop-color="#4F575B"/>
<stop offset="0.67" stop-color="#4F575B"/>
<stop offset="1" stop-color="#060E11"/>
</linearGradient>
<linearGradient id="paint1_linear_32_1525" x1="4.875" y1="45.7466" x2="4.875" y2="50.8716" gradientUnits="userSpaceOnUse">
<stop stop-color="#060E11"/>
<stop offset="0.33" stop-color="#2E3235"/>
<stop offset="1" stop-color="#060E11"/>
</linearGradient>
<linearGradient id="paint2_linear_32_1525" x1="4.875" y1="78.6841" x2="4.875" y2="83.8091" gradientUnits="userSpaceOnUse">
<stop stop-color="#060E11"/>
<stop offset="0.33" stop-color="#2E3235"/>
<stop offset="1" stop-color="#060E11"/>
</linearGradient>
<linearGradient id="paint3_linear_32_1525" x1="242.951" y1="6.40223" x2="242.951" y2="422.545" gradientUnits="userSpaceOnUse">
<stop stop-color="#CACFD1"/>
<stop offset="0.803705" stop-color="#B7BEC0"/>
<stop offset="0.804852" stop-color="#7C8284"/>
<stop offset="1" stop-color="#3D4549"/>
</linearGradient>
<linearGradient id="paint4_linear_32_1525" x1="25.689" y1="26.7964" x2="25.689" y2="344.046" gradientUnits="userSpaceOnUse">
<stop stop-color="#AFB9BB" stop-opacity="0.718447"/>
<stop offset="1" stop-color="#AFB9BB" stop-opacity="0"/>
</linearGradient>
<linearGradient id="paint5_linear_32_1525" x1="198.939" y1="24.3394" x2="198.939" y2="341.589" gradientUnits="userSpaceOnUse">
<stop stop-color="#AFB9BB"/>
<stop offset="1" stop-color="#AFB9BB" stop-opacity="0"/>
</linearGradient>
<linearGradient id="paint6_linear_32_1525" x1="202.939" y1="265.839" x2="249.439" y2="-22.9106" gradientUnits="userSpaceOnUse">
<stop stop-color="#AFB9BB"/>
<stop offset="1" stop-color="#AFB9BB" stop-opacity="0"/>
</linearGradient>
<linearGradient id="paint7_linear_32_1525" x1="21.689" y1="268.296" x2="-24.811" y2="-20.4536" gradientUnits="userSpaceOnUse">
<stop stop-color="#AFB9BB"/>
<stop offset="1" stop-color="#AFB9BB" stop-opacity="0"/>
</linearGradient>
<linearGradient id="paint8_linear_32_1525" x1="123.243" y1="417.767" x2="123.243" y2="10.4733" gradientUnits="userSpaceOnUse">
<stop stop-color="#CFDADB"/>
<stop offset="1" stop-color="#DFE7EB"/>
</linearGradient>
<linearGradient id="paint9_linear_32_1525" x1="163.969" y1="420.536" x2="163.969" y2="424.602" gradientUnits="userSpaceOnUse">
<stop stop-color="#AAB5B7"/>
<stop offset="1" stop-color="#AAB5B7" stop-opacity="0"/>
</linearGradient>
<radialGradient id="paint10_radial_32_1525" cx="0" cy="0" r="1" gradientUnits="userSpaceOnUse" gradientTransform="translate(112.314 8.43819) scale(95.9131 32.8737)">
<stop stop-color="#EBF2F7"/>
<stop offset="0.789109" stop-color="#EBF2F7"/>
<stop offset="1" stop-color="#EBF2F7" stop-opacity="0.427184"/>
</radialGradient>
<radialGradient id="paint11_radial_32_1525" cx="0" cy="0" r="1" gradientUnits="userSpaceOnUse" gradientTransform="translate(194.59 49.7489) rotate(180) scale(146.295 233.909)">
<stop stop-color="#222C32"/>
<stop offset="1"/>
</radialGradient>
<linearGradient id="paint12_linear_32_1525" x1="107.687" y1="405.198" x2="107.687" y2="391.368" gradientUnits="userSpaceOnUse">
<stop stop-color="#818284"/>
<stop offset="1" stop-color="#424446"/>
</linearGradient>
<linearGradient id="paint13_linear_32_1525" x1="204.987" y1="75.8608" x2="19.5816" y2="353.793" gradientUnits="userSpaceOnUse">
<stop stop-color="#475156"/>
<stop offset="1" stop-color="#26292C"/>
</linearGradient>
<clipPath id="clip0_32_1525">
<rect width="223.113" height="425.839" fill="white"/>
</clipPath>
</defs>
</svg>
