<svg width="128" height="128" viewBox="0 0 128 128" fill="none" xmlns="http://www.w3.org/2000/svg">
<path d="M18 4H90L100 14L111 25.5V124H18V4Z" fill="#D9D9D9"/>
<path d="M14 4H18V8H14V4Z" fill="black"/>
<path d="M14 0H18V4H14V0Z" fill="black"/>
<path d="M18 0H22V4H18V0Z" fill="black"/>
<path d="M22 0H26V4H22V0Z" fill="black"/>
<path d="M26 0H30V4H26V0Z" fill="black"/>
<path d="M30 0H34V4H30V0Z" fill="black"/>
<path d="M34 0H38V4H34V0Z" fill="black"/>
<path d="M38 0H42V4H38V0Z" fill="black"/>
<path d="M42 0H46V4H42V0Z" fill="black"/>
<path d="M46 0H50V4H46V0Z" fill="black"/>
<path d="M50 0H54V4H50V0Z" fill="black"/>
<path d="M54 0H58V4H54V0Z" fill="black"/>
<path d="M58 0H62V4H58V0Z" fill="black"/>
<path d="M62 0H66V4H62V0Z" fill="black"/>
<path d="M66 0H70V4H66V0Z" fill="black"/>
<path d="M70 0H74V4H70V0Z" fill="black"/>
<path d="M74 0H78V4H74V0Z" fill="black"/>
<path d="M78 0H82V4H78V0Z" fill="black"/>
<path d="M82 0H86V4H82V0Z" fill="black"/>
<path d="M86 0H90V4H86V0Z" fill="black"/>
<path d="M90 4H94V8H90V4Z" fill="black"/>
<path d="M94 8H98V12H94V8Z" fill="black"/>
<path d="M98 12H102V16H98V12Z" fill="black"/>
<path d="M102 16H106V20H102V16Z" fill="black"/>
<path d="M106 20H110V24H106V20Z" fill="black"/>
<path d="M110 24H114V28H110V24Z" fill="black"/>
<path d="M110 28H114V32H110V28Z" fill="black"/>
<path d="M110 32H114V36H110V32Z" fill="black"/>
<path d="M110 36H114V40H110V36Z" fill="black"/>
<path d="M110 40H114V44H110V40Z" fill="black"/>
<path d="M110 44H114V48H110V44Z" fill="black"/>
<path d="M110 48H114V52H110V48Z" fill="black"/>
<path d="M110 52H114V56H110V52Z" fill="black"/>
<path d="M110 56H114V60H110V56Z" fill="black"/>
<path d="M110 60H114V64H110V60Z" fill="black"/>
<path d="M110 64H114V68H110V64Z" fill="black"/>
<path d="M110 68H114V72H110V68Z" fill="black"/>
<path d="M110 72H114V76H110V72Z" fill="black"/>
<path d="M110 76H114V80H110V76Z" fill="black"/>
<path d="M110 80H114V84H110V80Z" fill="black"/>
<path d="M110 84H114V88H110V84Z" fill="black"/>
<path d="M110 88H114V92H110V88Z" fill="black"/>
<path d="M110 92H114V96H110V92Z" fill="black"/>
<path d="M110 96H114V100H110V96Z" fill="black"/>
<path d="M110 100H114V104H110V100Z" fill="black"/>
<path d="M110 104H114V108H110V104Z" fill="black"/>
<path d="M110 108H114V112H110V108Z" fill="black"/>
<path d="M110 112H114V116H110V112Z" fill="black"/>
<path d="M110 116H114V120H110V116Z" fill="black"/>
<path d="M110 120H114V124H110V120Z" fill="black"/>
<path d="M110 124H114V128H110V124Z" fill="black"/>
<path d="M106 124H110V128H106V124Z" fill="black"/>
<path d="M102 124H106V128H102V124Z" fill="black"/>
<path d="M98 124H102V128H98V124Z" fill="black"/>
<path d="M94 124H98V128H94V124Z" fill="black"/>
<path d="M90 124H94V128H90V124Z" fill="black"/>
<path d="M86 124H90V128H86V124Z" fill="black"/>
<path d="M82 124H86V128H82V124Z" fill="black"/>
<path d="M78 124H82V128H78V124Z" fill="black"/>
<path d="M74 124H78V128H74V124Z" fill="black"/>
<path d="M70 124H74V128H70V124Z" fill="black"/>
<path d="M66 124H70V128H66V124Z" fill="black"/>
<path d="M62 124H66V128H62V124Z" fill="black"/>
<path d="M58 124H62V128H58V124Z" fill="black"/>
<path d="M54 124H58V128H54V124Z" fill="black"/>
<path d="M50 124H54V128H50V124Z" fill="black"/>
<path d="M46 124H50V128H46V124Z" fill="black"/>
<path d="M42 124H46V128H42V124Z" fill="black"/>
<path d="M38 124H42V128H38V124Z" fill="black"/>
<path d="M34 124H38V128H34V124Z" fill="black"/>
<path d="M30 124H34V128H30V124Z" fill="black"/>
<path d="M26 124H30V128H26V124Z" fill="black"/>
<path d="M22 124H26V128H22V124Z" fill="black"/>
<path d="M106 24H110V28H106V24Z" fill="black"/>
<path d="M102 24H106V28H102V24Z" fill="black"/>
<path d="M98 24H102V28H98V24Z" fill="black"/>
<path d="M94 24H98V28H94V24Z" fill="black"/>
<path d="M90 24H94V28H90V24Z" fill="black"/>
<path d="M86 24H90V28H86V24Z" fill="black"/>
<path d="M86 20H90V24H86V20Z" fill="black"/>
<path d="M82 20H86V24H82V20Z" fill="black"/>
<path d="M78 20H82V24H78V20Z" fill="black"/>
<path d="M74 20H78V24H74V20Z" fill="black"/>
<path d="M66 20H70V24H66V20Z" fill="black"/>
<path d="M62 20H66V24H62V20Z" fill="black"/>
<path d="M58 20H62V24H58V20Z" fill="black"/>
<path d="M54 20H58V24H54V20Z" fill="black"/>
<path d="M46 20H50V24H46V20Z" fill="black"/>
<path d="M42 20H46V24H42V20Z" fill="black"/>
<path d="M38 20H42V24H38V20Z" fill="black"/>
<path d="M38 28H42V32H38V28Z" fill="black"/>
<path d="M46 28H50V32H46V28Z" fill="black"/>
<path d="M50 28H54V32H50V28Z" fill="black"/>
<path d="M54 28H58V32H54V28Z" fill="black"/>
<path d="M62 28H66V32H62V28Z" fill="black"/>
<path d="M66 28H70V32H66V28Z" fill="black"/>
<path d="M70 28H74V32H70V28Z" fill="black"/>
<path d="M74 28H78V32H74V28Z" fill="black"/>
<path d="M78 28H82V32H78V28Z" fill="black"/>
<path d="M34 28H38V32H34V28Z" fill="black"/>
<path d="M30 28H34V32H30V28Z" fill="black"/>
<path d="M30 36H34V40H30V36Z" fill="black"/>
<path d="M34 36H38V40H34V36Z" fill="black"/>
<path d="M38 36H42V40H38V36Z" fill="black"/>
<path d="M42 36H46V40H42V36Z" fill="black"/>
<path d="M46 36H50V40H46V36Z" fill="black"/>
<path d="M54 36H58V40H54V36Z" fill="black"/>
<path d="M58 36H62V40H58V36Z" fill="black"/>
<path d="M62 36H66V40H62V36Z" fill="black"/>
<path d="M66 36H70V40H66V36Z" fill="black"/>
<path d="M70 36H74V40H70V36Z" fill="black"/>
<path d="M74 36H78V40H74V36Z" fill="black"/>
<path d="M82 36H86V40H82V36Z" fill="black"/>
<path d="M86 36H90V40H86V36Z" fill="black"/>
<path d="M90 36H94V40H90V36Z" fill="black"/>
<path d="M90 44H94V48H90V44Z" fill="black"/>
<path d="M86 44H90V48H86V44Z" fill="black"/>
<path d="M82 44H86V48H82V44Z" fill="black"/>
<path d="M78 44H82V48H78V44Z" fill="black"/>
<path d="M70 44H74V48H70V44Z" fill="black"/>
<path d="M66 44H70V48H66V44Z" fill="black"/>
<path d="M62 44H66V48H62V44Z" fill="black"/>
<path d="M54 44H58V48H54V44Z" fill="black"/>
<path d="M50 44H54V48H50V44Z" fill="black"/>
<path d="M46 44H50V48H46V44Z" fill="black"/>
<path d="M38 44H42V48H38V44Z" fill="black"/>
<path d="M34 44H38V48H34V44Z" fill="black"/>
<path d="M94 36H98V40H94V36Z" fill="black"/>
<path d="M30 44H34V48H30V44Z" fill="black"/>
<path d="M38 56H42V60H38V56Z" fill="black"/>
<path d="M42 56H46V60H42V56Z" fill="black"/>
<path d="M46 56H50V60H46V56Z" fill="black"/>
<path d="M50 56H54V60H50V56Z" fill="black"/>
<path d="M58 56H62V60H58V56Z" fill="black"/>
<path d="M62 56H66V60H62V56Z" fill="black"/>
<path d="M66 56H70V60H66V56Z" fill="black"/>
<path d="M70 56H74V60H70V56Z" fill="black"/>
<path d="M78 56H82V60H78V56Z" fill="black"/>
<path d="M82 56H86V60H82V56Z" fill="black"/>
<path d="M86 56H90V60H86V56Z" fill="black"/>
<path d="M90 56H94V60H90V56Z" fill="black"/>
<path d="M94 56H98V60H94V56Z" fill="black"/>
<path d="M30 64H34V68H30V64Z" fill="black"/>
<path d="M34 64H38V68H34V64Z" fill="black"/>
<path d="M38 64H42V68H38V64Z" fill="black"/>
<path d="M42 64H46V68H42V64Z" fill="black"/>
<path d="M50 64H54V68H50V64Z" fill="black"/>
<path d="M54 64H58V68H54V64Z" fill="black"/>
<path d="M58 64H62V68H58V64Z" fill="black"/>
<path d="M62 64H66V68H62V64Z" fill="black"/>
<path d="M70 64H74V68H70V64Z" fill="black"/>
<path d="M74 64H78V68H74V64Z" fill="black"/>
<path d="M78 64H82V68H78V64Z" fill="black"/>
<path d="M82 64H86V68H82V64Z" fill="black"/>
<path d="M90 64H94V68H90V64Z" fill="black"/>
<path d="M94 64H98V68H94V64Z" fill="black"/>
<path d="M30 72H34V76H30V72Z" fill="black"/>
<path d="M34 72H38V76H34V72Z" fill="black"/>
<path d="M42 72H46V76H42V72Z" fill="black"/>
<path d="M46 72H50V76H46V72Z" fill="black"/>
<path d="M50 72H54V76H50V72Z" fill="black"/>
<path d="M54 72H58V76H54V72Z" fill="black"/>
<path d="M62 72H66V76H62V72Z" fill="black"/>
<path d="M66 72H70V76H66V72Z" fill="black"/>
<path d="M70 72H74V76H70V72Z" fill="black"/>
<path d="M74 72H78V76H74V72Z" fill="black"/>
<path d="M82 72H86V76H82V72Z" fill="black"/>
<path d="M86 72H90V76H86V72Z" fill="black"/>
<path d="M90 72H94V76H90V72Z" fill="black"/>
<path d="M94 72H98V76H94V72Z" fill="black"/>
<path d="M30 80H34V84H30V80Z" fill="black"/>
<path d="M34 80H38V84H34V80Z" fill="black"/>
<path d="M38 80H42V84H38V80Z" fill="black"/>
<path d="M42 80H46V84H42V80Z" fill="black"/>
<path d="M50 80H54V84H50V80Z" fill="black"/>
<path d="M54 80H58V84H54V80Z" fill="black"/>
<path d="M58 80H62V84H58V80Z" fill="black"/>
<path d="M62 80H66V84H62V80Z" fill="black"/>
<path d="M66 80H70V84H66V80Z" fill="black"/>
<path d="M74 80H78V84H74V80Z" fill="black"/>
<path d="M78 80H82V84H78V80Z" fill="black"/>
<path d="M82 80H86V84H82V80Z" fill="black"/>
<path d="M86 80H90V84H86V80Z" fill="black"/>
<path d="M86 16H90V20H86V16Z" fill="black"/>
<path d="M86 12H90V16H86V12Z" fill="black"/>
<path d="M86 8H90V12H86V8Z" fill="black"/>
<path d="M86 4H90V8H86V4Z" fill="black"/>
<path d="M14 8H18V12H14V8Z" fill="black"/>
<path d="M14 12H18V16H14V12Z" fill="black"/>
<path d="M14 16H18V20H14V16Z" fill="black"/>
<path d="M14 20H18V24H14V20Z" fill="black"/>
<path d="M14 24H18V28H14V24Z" fill="black"/>
<path d="M14 28H18V32H14V28Z" fill="black"/>
<path d="M14 32H18V36H14V32Z" fill="black"/>
<path d="M14 36H18V40H14V36Z" fill="black"/>
<path d="M14 40H18V44H14V40Z" fill="black"/>
<path d="M14 44H18V48H14V44Z" fill="black"/>
<path d="M14 48H18V52H14V48Z" fill="black"/>
<path d="M14 52H18V56H14V52Z" fill="black"/>
<path d="M14 56H18V60H14V56Z" fill="black"/>
<path d="M14 60H18V64H14V60Z" fill="black"/>
<path d="M14 64H18V68H14V64Z" fill="black"/>
<path d="M14 68H18V72H14V68Z" fill="black"/>
<path d="M14 72H18V76H14V72Z" fill="black"/>
<path d="M14 76H18V80H14V76Z" fill="black"/>
<path d="M14 80H18V84H14V80Z" fill="black"/>
<path d="M14 84H18V88H14V84Z" fill="black"/>
<path d="M14 88H18V92H14V88Z" fill="black"/>
<path d="M14 92H18V96H14V92Z" fill="black"/>
<path d="M14 96H18V100H14V96Z" fill="black"/>
<path d="M14 100H18V104H14V100Z" fill="black"/>
<path d="M14 104H18V108H14V104Z" fill="black"/>
<path d="M14 108H18V112H14V108Z" fill="black"/>
<path d="M14 112H18V116H14V112Z" fill="black"/>
<path d="M14 116H18V120H14V116Z" fill="black"/>
<path d="M14 120H18V124H14V120Z" fill="black"/>
<path d="M14 124H18V128H14V124Z" fill="black"/>
<path d="M18 124H22V128H18V124Z" fill="black"/>
</svg>
